<?xml version="1.0" encoding="utf-8"?>
<!-- Generator: Adobe Illustrator 16.0.0, SVG Export Plug-In . SVG Version: 6.00 Build 0)  -->
<!DOCTYPE svg PUBLIC "-//W3C//DTD SVG 1.1//EN" "http://www.w3.org/Graphics/SVG/1.1/DTD/svg11.dtd">
<svg version="1.1" id="Layer_1" xmlns="http://www.w3.org/2000/svg" xmlns:xlink="http://www.w3.org/1999/xlink" x="0px" y="0px"
	 width="1170px" height="600px" viewBox="0 0 1170 600" enable-background="new 0 0 1170 600" xml:space="preserve">
<g>
	<path fill-rule="evenodd" clip-rule="evenodd" fill="#231F20" d="M533.631,312.85l18.25,18.252
		c10.371-5.428,17.684-15.902,18.676-28.16L533.631,312.85z"/>
	<path fill-rule="evenodd" clip-rule="evenodd" fill="#231F20" d="M555.582,271.282l-9.861,36.964l24.922-6.688
		c0.021-0.493,0.031-0.986,0.031-1.484C570.674,288.139,564.701,277.599,555.582,271.282z"/>
	<path fill-rule="evenodd" clip-rule="evenodd" fill="#231F20" d="M526.063,290.467l0.002-0.004l0.012-0.002l0.002-0.012
		l0.021,0.006l11.006-2.951l0.648-0.174l-18.287-18.286c-10.383,5.434-17.699,15.927-18.68,28.206L526.063,290.467z"/>
	<path fill-rule="evenodd" clip-rule="evenodd" fill="#231F20" d="M547.766,295.486l6.662-24.97
		c-5.422-3.446-11.854-5.443-18.754-5.443c-5.355,0-10.43,1.203-14.967,3.354L547.766,295.486z"/>
	<path fill-rule="evenodd" clip-rule="evenodd" fill="#231F20" d="M515.822,328.9l6.738-25.264l-0.037-0.039l0.029-0.027
		l3.117-11.639l-24.967,6.699c-0.018,0.479-0.029,0.959-0.029,1.443C500.674,312.031,506.672,322.588,515.822,328.9z"/>
	<path fill-rule="evenodd" clip-rule="evenodd" fill="#231F20" d="M523.633,304.709l-6.656,24.955
		c5.41,3.426,11.822,5.408,18.697,5.408c5.355,0,10.43-1.203,14.969-3.354L523.633,304.709z"/>
</g>
<g>
	<path fill-rule="evenodd" clip-rule="evenodd" fill="#231F20" d="M627.291,293.513l-26.6,7.139
		c0.201,12.45,6.904,23.322,16.865,29.365l7.201-26.997l-0.033-0.033l0.039-0.039L627.291,293.513z"/>
	<path fill-rule="evenodd" clip-rule="evenodd" fill="#231F20" d="M617.688,270.051c-9.977,5.995-16.721,16.819-16.992,29.239
		l36.453-9.78L617.688,270.051z"/>
	<path fill-rule="evenodd" clip-rule="evenodd" fill="#231F20" d="M643.699,308.066l-0.002,0.012l-9.482,2.539l19.479,19.478
		c9.986-5.998,16.732-16.837,16.994-29.27L643.699,308.066z"/>
	<path fill-rule="evenodd" clip-rule="evenodd" fill="#231F20" d="M625.83,304.092l-7.098,26.606
		c5.023,2.789,10.807,4.375,16.959,4.375c6.098,0,11.83-1.559,16.824-4.301L625.83,304.092z"/>
	<path fill-rule="evenodd" clip-rule="evenodd" fill="#231F20" d="M644.617,304.645l-0.523,1.957l26.596-7.137
		c-0.211-12.438-6.912-23.297-16.863-29.335l-7.203,26.995l0.033,0.034l-0.045,0.045L644.617,304.645z"/>
	<path fill-rule="evenodd" clip-rule="evenodd" fill="#231F20" d="M645.551,296.053l7.098-26.606
		c-5.023-2.786-10.805-4.374-16.957-4.374c-6.1,0-11.832,1.561-16.824,4.301L645.551,296.053z"/>
</g>
<g>
	<path fill-rule="evenodd" clip-rule="evenodd" fill="#231F20" d="M700.82,302.634c0.893,12.321,8.162,22.876,18.525,28.376
		l9.58-35.918L700.82,302.634z"/>
	<path fill-rule="evenodd" clip-rule="evenodd" fill="#231F20" d="M755.436,329.002c9.232-6.302,15.293-16.906,15.293-28.93
		c0-0.41-0.008-0.819-0.021-1.227l-35.816,9.612L755.436,329.002z"/>
	<path fill-rule="evenodd" clip-rule="evenodd" fill="#231F20" d="M716.074,271.109c-9.262,6.297-15.346,16.919-15.346,28.963
		c0,0.41,0.008,0.817,0.021,1.223l35.881-9.63L716.074,271.109z"/>
	<path fill-rule="evenodd" clip-rule="evenodd" fill="#231F20" d="M733.395,308.818l-0.012,0.004l-5.338-5.337l-7.504,28.13
		c4.594,2.216,9.746,3.458,15.188,3.458c6.828,0,13.199-1.955,18.584-5.337L733.395,308.818z"/>
	<path fill-rule="evenodd" clip-rule="evenodd" fill="#231F20" d="M743.123,302.782l-0.609,2.271l28.123-7.547
		c-0.895-12.32-8.164-22.871-18.525-28.37l-8.975,33.649L743.123,302.782z"/>
	<path fill-rule="evenodd" clip-rule="evenodd" fill="#231F20" d="M743.426,296.605l7.49-28.075
		c-4.594-2.215-9.746-3.458-15.188-3.458c-6.805,0-13.156,1.943-18.531,5.304L743.426,296.605z"/>
</g>
<g>
	<path fill-rule="evenodd" clip-rule="evenodd" fill="#231F20" d="M856.842,327.863c8.342-6.397,13.719-16.467,13.719-27.79
		c0-1.099-0.051-2.185-0.15-3.256l-35.176,9.439L856.842,327.863z"/>
	<path fill-rule="evenodd" clip-rule="evenodd" fill="#231F20" d="M870.264,295.498c-1.586-12.145-9.396-22.331-20.125-27.253
		l-9.385,35.171L870.264,295.498z"/>
	<path fill-rule="evenodd" clip-rule="evenodd" fill="#231F20" d="M814.281,272.283c-8.342,6.397-13.721,16.467-13.721,27.79
		c0,1.084,0.051,2.158,0.146,3.217l35.146-9.432L814.281,272.283z"/>
	<path fill-rule="evenodd" clip-rule="evenodd" fill="#231F20" d="M830.031,302.91l-7.869,29.506
		c4.125,1.711,8.652,2.656,13.398,2.656c7.529,0,14.504-2.376,20.213-6.422L830.031,302.91z"/>
	<path fill-rule="evenodd" clip-rule="evenodd" fill="#231F20" d="M841.057,297.203l7.867-29.488
		c-4.117-1.702-8.631-2.642-13.363-2.642c-7.529,0-14.502,2.378-20.211,6.423L841.057,297.203z"/>
	<path fill-rule="evenodd" clip-rule="evenodd" fill="#231F20" d="M830.33,296.699l-29.477,7.91
		c1.57,12.147,9.371,22.341,20.09,27.274L830.33,296.699z"/>
</g>
<g>
	<path fill-rule="evenodd" clip-rule="evenodd" fill="#231F20" d="M938.844,297.871l8.225-30.834
		c-3.627-1.272-7.529-1.965-11.59-1.965c-8.248,0-15.828,2.854-21.811,7.625L938.844,297.871z"/>
	<path fill-rule="evenodd" clip-rule="evenodd" fill="#231F20" d="M939.154,301.793l30.719-8.243
		c-2.248-11.921-10.539-21.707-21.57-26.053L939.154,301.793z"/>
	<path fill-rule="evenodd" clip-rule="evenodd" fill="#231F20" d="M958.303,326.605c7.457-6.417,12.176-15.924,12.176-26.533
		c0-1.774-0.131-3.519-0.387-5.223l-34.334,9.213L958.303,326.605z"/>
	<path fill-rule="evenodd" clip-rule="evenodd" fill="#231F20" d="M931.115,301.255l-0.014-0.012l0.789-2.945l-30.811,8.269
		c2.244,11.961,10.574,21.779,21.652,26.112L931.115,301.255z"/>
	<path fill-rule="evenodd" clip-rule="evenodd" fill="#231F20" d="M912.654,273.539c-7.455,6.418-12.176,15.924-12.176,26.534
		c0,1.766,0.131,3.499,0.383,5.193l34.313-9.207L912.654,273.539z"/>
	<path fill-rule="evenodd" clip-rule="evenodd" fill="#231F20" d="M934.297,304.455l-0.049,0.014l-0.023-0.084l-2.041-2.043
		l-8.215,30.795c3.604,1.254,7.479,1.937,11.51,1.937c8.246,0,15.828-2.854,21.809-7.626L934.297,304.455z"/>
</g>
<g>
	<path fill-rule="evenodd" clip-rule="evenodd" fill="#231F20" d="M1037.684,299.467l0.018,0.018l-0.186,0.695l31.967-8.578
		c-2.91-11.709-11.715-21.088-23.084-24.804L1037.684,299.467z"/>
	<path fill-rule="evenodd" clip-rule="evenodd" fill="#231F20" d="M1037.117,301.673l-0.719,0.19l23.408,23.408
		c6.602-6.367,10.709-15.303,10.709-25.198c0-2.466-0.254-4.87-0.738-7.192l-32.652,8.763L1037.117,301.673z"/>
	<path fill-rule="evenodd" clip-rule="evenodd" fill="#231F20" d="M1036.086,297.877l0.047-0.013l0.02,0.071l0.459,0.459
		l8.531-31.981c-3.059-0.874-6.287-1.341-9.627-1.341c-8.961,0-17.135,3.369-23.328,8.907L1036.086,297.877z"/>
	<path fill-rule="evenodd" clip-rule="evenodd" fill="#231F20" d="M1034.934,302.257l-0.006,0.001l-0.545-0.545l-8.537,32.007
		c3.072,0.879,6.314,1.353,9.67,1.353c8.963,0,17.137-3.369,23.328-8.908L1034.934,302.257z"/>
	<path fill-rule="evenodd" clip-rule="evenodd" fill="#231F20" d="M1033.5,299.929l-31.961,8.577
		c2.898,11.711,11.691,21.099,23.051,24.828L1033.5,299.929z"/>
	<path fill-rule="evenodd" clip-rule="evenodd" fill="#231F20" d="M1011.227,274.874c-6.604,6.366-10.711,15.302-10.711,25.2
		c0,2.45,0.252,4.843,0.732,7.151l33.373-8.955L1011.227,274.874z"/>
</g>
<g>
	<path fill-rule="evenodd" clip-rule="evenodd" fill="#231F20" d="M102.288,290.09c-0.938,3.164-1.444,6.514-1.444,9.982
		c0,8.765,3.222,16.779,8.544,22.918l10-37.49L102.288,290.09z"/>
	<path fill-rule="evenodd" clip-rule="evenodd" fill="#231F20" d="M131.424,321.588l12.538,12.535
		c11.677-2.771,21.087-11.394,24.965-22.601L131.424,321.588z"/>
	<path fill-rule="evenodd" clip-rule="evenodd" fill="#231F20" d="M127.726,266.019c-11.669,2.772-21.077,11.387-24.958,22.584
		l37.482-10.059L127.726,266.019z"/>
	<path fill-rule="evenodd" clip-rule="evenodd" fill="#231F20" d="M156.683,293.119l4.565-17.122
		c-6.378-6.728-15.401-10.925-25.404-10.925c-2.252,0-4.455,0.212-6.589,0.618L156.683,293.119z"/>
	<path fill-rule="evenodd" clip-rule="evenodd" fill="#231F20" d="M115.006,307.025l-4.566,17.12
		c6.377,6.731,15.401,10.927,25.404,10.927c2.252,0,4.455-0.212,6.59-0.621L115.006,307.025z"/>
	<path fill-rule="evenodd" clip-rule="evenodd" fill="#231F20" d="M169.405,310.035c0.936-3.156,1.438-6.502,1.438-9.963
		c0-8.766-3.221-16.777-8.545-22.917l-9.994,37.469L169.405,310.035z"/>
</g>
<g>
	<path fill-rule="evenodd" clip-rule="evenodd" fill="#231F20" d="M221.432,285.664l0.008-0.029l0.04,0.011l12.07-3.234l6.129-1.645
		l-14.148-14.149c-11.398,3.512-20.313,12.688-23.457,24.242L221.432,285.664z"/>
	<path fill-rule="evenodd" clip-rule="evenodd" fill="#231F20" d="M250.259,314.506v0.004l-0.01-0.002l-18.213,4.889l14.133,14.132
		c11.389-3.51,20.299-12.676,23.447-24.218L250.259,314.506z"/>
	<path fill-rule="evenodd" clip-rule="evenodd" fill="#231F20" d="M255.521,294.781l0.015,0.014l-4.235,15.808l-0.65,2.439
		l19.331-5.188c0.569-2.505,0.868-5.105,0.868-7.78c0-9.621-3.88-18.335-10.162-24.662L255.521,294.781z"/>
	<path fill-rule="evenodd" clip-rule="evenodd" fill="#231F20" d="M217.243,306.461l-5.15,19.315
		c6.24,5.772,14.584,9.297,23.756,9.297c3.064,0,6.041-0.395,8.875-1.136L217.243,306.461z"/>
	<path fill-rule="evenodd" clip-rule="evenodd" fill="#231F20" d="M254.454,293.686l5.152-19.315
		c-6.242-5.771-14.586-9.298-23.758-9.298c-3.064,0-6.041,0.395-8.874,1.134L254.454,293.686z"/>
	<path fill-rule="evenodd" clip-rule="evenodd" fill="#231F20" d="M216.173,305.386l-0.039-0.036l0.034-0.032l4.873-18.19
		l-19.329,5.188c-0.564,2.494-0.863,5.091-0.863,7.759c0,9.62,3.881,18.333,10.163,24.659L216.173,305.386z"/>
</g>
<g>
	<path fill-rule="evenodd" clip-rule="evenodd" fill="#231F20" d="M332.457,317.206l15.604,15.604
		c11.068-4.194,19.455-13.842,21.881-25.661L332.457,317.206z"/>
	<path fill-rule="evenodd" clip-rule="evenodd" fill="#231F20" d="M358.883,273.889l-5.732,21.486l0.033,0.033l-0.049,0.049
		l-1.359,5.072l-2.912,10.916l21.34-5.727c0.299-1.838,0.453-3.725,0.453-5.646C370.656,289.654,366.105,280.3,358.883,273.889z"/>
	<path fill-rule="evenodd" clip-rule="evenodd" fill="#231F20" d="M338.865,282.947l-15.613-15.612
		c-11.07,4.196-19.459,13.849-21.881,25.673L338.865,282.947z"/>
	<path fill-rule="evenodd" clip-rule="evenodd" fill="#231F20" d="M319.234,305.841l-5.697,21.356
		c6.029,4.922,13.73,7.875,22.119,7.875c3.855,0,7.564-0.625,11.033-1.776L319.234,305.841z"/>
	<path fill-rule="evenodd" clip-rule="evenodd" fill="#231F20" d="M352.078,294.303l5.697-21.356
		c-6.029-4.922-13.729-7.874-22.119-7.874c-3.855,0-7.564,0.624-11.033,1.775L352.078,294.303z"/>
	<path fill-rule="evenodd" clip-rule="evenodd" fill="#231F20" d="M312.432,326.256l5.732-21.488l-0.01-0.007l2.402-8.964
		l1.891-7.086l-21.338,5.727c-0.297,1.834-0.453,3.717-0.453,5.635C300.656,310.49,305.209,319.845,312.432,326.256z"/>
</g>
<g>
	<path fill-rule="evenodd" clip-rule="evenodd" fill="#231F20" d="M438.305,285.107l-16.98-16.979
		c-10.748,4.826-18.619,14.918-20.33,26.992L438.305,285.107z"/>
	<path fill-rule="evenodd" clip-rule="evenodd" fill="#231F20" d="M457.24,272.525l-9.953,37.318l23.182-6.221
		c0.117-1.167,0.178-2.352,0.178-3.55C470.646,288.891,465.402,278.933,457.24,272.525z"/>
	<path fill-rule="evenodd" clip-rule="evenodd" fill="#231F20" d="M433.059,315.02l16.971,16.971
		c10.719-4.837,18.563-14.913,20.27-26.964L433.059,315.02z"/>
	<path fill-rule="evenodd" clip-rule="evenodd" fill="#231F20" d="M431.561,315.378l-0.02,0.005l-10.156-10.156l-6.201,23.245
		c5.754,4.153,12.824,6.602,20.463,6.602c4.625,0,9.041-0.898,13.084-2.527L431.561,315.378z"/>
	<path fill-rule="evenodd" clip-rule="evenodd" fill="#231F20" d="M449.922,294.869l6.188-23.195
		c-5.756-4.154-12.822-6.603-20.463-6.603c-4.602,0-8.996,0.888-13.02,2.503L449.922,294.869z"/>
	<path fill-rule="evenodd" clip-rule="evenodd" fill="#231F20" d="M414.053,327.619l9.955-37.316l-23.184,6.221
		c-0.119,1.166-0.178,2.352-0.178,3.549C400.646,311.255,405.891,321.212,414.053,327.619z"/>
</g>
</svg>
